<svg width="36" height="37" viewBox="0 0 36 37" fill="none" xmlns="http://www.w3.org/2000/svg">
<g clip-path="url(#clip0_17_23532)">
<path d="M18 0.25H6C2.68629 0.25 0 2.93629 0 6.25V18.25C0 21.5637 2.68629 24.25 6 24.25H18C21.3137 24.25 24 21.5637 24 18.25V6.25C24 2.93629 21.3137 0.25 18 0.25Z" fill="#06B3A8" fill-opacity="0.5"/>
<path d="M23.9995 14.251C18.4895 14.251 13.9995 18.7409 13.9995 24.251C13.9995 29.761 18.4895 34.2509 23.9995 34.2509C29.5095 34.2509 33.9995 29.761 33.9995 24.251C33.9995 18.7409 29.5095 14.251 23.9995 14.251ZM28.7795 21.9509L23.1095 27.6209C22.9695 27.761 22.7795 27.841 22.5795 27.841C22.3795 27.841 22.1895 27.761 22.0495 27.6209L19.2195 24.791C18.9295 24.5009 18.9295 24.0209 19.2195 23.731C19.5095 23.441 19.9895 23.441 20.2795 23.731L22.5795 26.0309L27.7196 20.891C28.0095 20.6009 28.4895 20.6009 28.7795 20.891C29.0695 21.181 29.0695 21.6509 28.7795 21.9509Z" fill="#6B747F"/>
</g>
<defs>
<clipPath id="clip0_17_23532">
<rect width="36" height="36" fill="white" transform="translate(0 0.25)"/>
</clipPath>
</defs>
</svg>
