<svg width="36" height="37" viewBox="0 0 36 37" fill="none" xmlns="http://www.w3.org/2000/svg">
<g clip-path="url(#clip0_17_23517)">
<path d="M18 0.25H6C2.68629 0.25 0 2.93629 0 6.25V18.25C0 21.5637 2.68629 24.25 6 24.25H18C21.3137 24.25 24 21.5637 24 18.25V6.25C24 2.93629 21.3137 0.25 18 0.25Z" fill="#06B3A8" fill-opacity="0.5"/>
<path d="M19.6486 33.1618C19.6186 33.1618 19.5786 33.1818 19.5486 33.1818C17.6086 32.2218 16.0286 30.6318 15.0586 28.6918C15.0586 28.6618 15.0786 28.6218 15.0786 28.5918C16.2986 28.9518 17.5586 29.2218 18.8086 29.4318C19.0286 30.6918 19.2886 31.9417 19.6486 33.1618Z" fill="#6B747F"/>
<path d="M32.939 28.7017C31.949 30.6918 30.299 32.3017 28.2891 33.2718C28.6691 32.0017 28.9891 30.7218 29.1991 29.4318C30.4591 29.2218 31.6991 28.9518 32.9191 28.5918C32.909 28.6318 32.939 28.6717 32.939 28.7017Z" fill="#6B747F"/>
<path d="M33.0191 19.9624C31.7591 19.5824 30.4891 19.2724 29.1991 19.0524C28.9891 17.7624 28.679 16.4824 28.2891 15.2324C30.359 16.2224 32.0291 17.8924 33.0191 19.9624Z" fill="#6B747F"/>
<path d="M19.6495 15.3415C19.2895 16.5615 19.0296 17.8015 18.8196 19.0615C17.5296 19.2615 16.2495 19.5816 14.9796 19.9615C15.9495 17.9515 17.5596 16.3015 19.5495 15.3115C19.5795 15.3115 19.6195 15.3415 19.6495 15.3415Z" fill="#6B747F"/>
<path d="M27.4893 18.841C25.1693 18.581 22.8293 18.581 20.5093 18.841C20.7593 17.471 21.0793 16.1009 21.5293 14.7809C21.5493 14.701 21.5393 14.641 21.5493 14.561C22.3393 14.371 23.1493 14.251 23.9993 14.251C24.8393 14.251 25.6593 14.371 26.4393 14.561C26.4493 14.641 26.4493 14.701 26.4693 14.7809C26.9193 16.111 27.2393 17.471 27.4893 18.841Z" fill="#6B747F"/>
<path d="M18.5895 27.7407C17.2095 27.4907 15.8495 27.1707 14.5295 26.7207C14.4495 26.7007 14.3895 26.7107 14.3095 26.7007C14.1195 25.9107 13.9995 25.1007 13.9995 24.2507C13.9995 23.4107 14.1195 22.5907 14.3095 21.8107C14.3895 21.8007 14.4495 21.8007 14.5295 21.7807C15.8595 21.3407 17.2095 21.0107 18.5895 20.7607C18.3395 23.0807 18.3395 25.4207 18.5895 27.7407Z" fill="#6B747F"/>
<path d="M33.9997 24.2507C33.9997 25.1007 33.8797 25.9107 33.6897 26.7007C33.6097 26.7107 33.5497 26.7007 33.4696 26.7207C32.1397 27.1607 30.7797 27.4907 29.4097 27.7407C29.6697 25.4207 29.6697 23.0807 29.4097 20.7607C30.7797 21.0107 32.1496 21.3307 33.4696 21.7807C33.5497 21.8007 33.6097 21.8107 33.6897 21.8107C33.8797 22.6007 33.9997 23.4107 33.9997 24.2507Z" fill="#6B747F"/>
<path d="M27.4893 29.6611C27.2393 31.0411 26.9193 32.4012 26.4693 33.7212C26.4493 33.8011 26.4493 33.8611 26.4393 33.9412C25.6593 34.1311 24.8393 34.2511 23.9993 34.2511C23.1493 34.2511 22.3393 34.1311 21.5493 33.9412C21.5393 33.8611 21.5493 33.8011 21.5293 33.7212C21.0893 32.3911 20.7593 31.0411 20.5093 29.6611C21.6693 29.7912 22.8293 29.8812 23.9993 29.8812C25.1693 29.8812 26.3393 29.7912 27.4893 29.6611Z" fill="#6B747F"/>
<path d="M27.7628 28.0143C25.2617 28.3298 22.7373 28.3298 20.2362 28.0143C19.9206 25.5132 19.9206 22.9887 20.2362 20.4876C22.7373 20.1721 25.2617 20.1721 27.7628 20.4876C28.0784 22.9887 28.0784 25.5132 27.7628 28.0143Z" fill="#6B747F"/>
</g>
<defs>
<clipPath id="clip0_17_23517">
<rect width="36" height="36" fill="white" transform="translate(0 0.25)"/>
</clipPath>
</defs>
</svg>
