<svg width="36" height="37" viewBox="0 0 36 37" fill="none" xmlns="http://www.w3.org/2000/svg">
<g clip-path="url(#clip0_17_23539)">
<path d="M18 0.25H6C2.68629 0.25 0 2.93629 0 6.25V18.25C0 21.5637 2.68629 24.25 6 24.25H18C21.3137 24.25 24 21.5637 24 18.25V6.25C24 2.93629 21.3137 0.25 18 0.25Z" fill="#06B3A8" fill-opacity="0.5"/>
<path d="M23.1666 27.7083V29.9583C23.1666 31.8333 22.4166 32.5833 20.5416 32.5833H18.2916C16.4166 32.5833 15.6666 31.8333 15.6666 29.9583V27.7083C15.6666 25.8333 16.4166 25.0833 18.2916 25.0833H20.5416C22.4166 25.0833 23.1666 25.8333 23.1666 27.7083Z" fill="#6B747F"/>
<path d="M27.7333 15.9167H21.1C18.5583 15.9167 16.5 17.9751 16.5 20.5167V23.0001C16.5 23.4584 16.875 23.8334 17.3333 23.8334H21.0833C22.925 23.8334 24.4167 25.3251 24.4167 27.1667V30.9167C24.4167 31.3751 24.7917 31.7501 25.25 31.7501H27.7333C30.6083 31.7501 32.3333 30.0334 32.3333 27.1501V20.5167C32.3333 17.9751 30.275 15.9167 27.7333 15.9167ZM29.6333 22.5751C29.6333 22.9167 29.35 23.2001 29.0083 23.2001C28.6667 23.2001 28.3833 22.9167 28.3833 22.5751V20.7417L25.275 23.8584C25.15 23.9834 24.9917 24.0417 24.8333 24.0417C24.675 24.0417 24.5167 23.9834 24.3917 23.8584C24.15 23.6167 24.15 23.2167 24.3917 22.9751L27.5 19.8501H25.6667C25.3167 19.8501 25.0417 19.5751 25.0417 19.2251C25.0417 18.8834 25.3167 18.6001 25.6667 18.6001H29.0083C29.0833 18.6001 29.1583 18.6251 29.225 18.6501C29.25 18.6584 29.2667 18.6667 29.2833 18.6751C29.3333 18.7001 29.375 18.7251 29.4167 18.7667C29.4333 18.7751 29.45 18.7917 29.4667 18.8084C29.5083 18.8584 29.5417 18.9084 29.575 18.9667C29.575 18.9751 29.5833 18.9834 29.5833 18.9917C29.6167 19.0584 29.625 19.1334 29.625 19.2084C29.6333 19.2167 29.6333 19.2167 29.6333 19.2251V22.5751Z" fill="#6B747F"/>
</g>
<defs>
<clipPath id="clip0_17_23539">
<rect width="36" height="36" fill="white" transform="translate(0 0.25)"/>
</clipPath>
</defs>
</svg>
