<svg width="36" height="37" viewBox="0 0 36 37" fill="none" xmlns="http://www.w3.org/2000/svg">
<g clip-path="url(#clip0_17_23510)">
<path d="M18 0.912109H6C2.68629 0.912109 0 3.5984 0 6.91211V18.9121C0 22.2258 2.68629 24.9121 6 24.9121H18C21.3137 24.9121 24 22.2258 24 18.9121V6.91211C24 3.5984 21.3137 0.912109 18 0.912109Z" fill="#06B3A8" fill-opacity="0.5"/>
<path d="M31.11 18.3294L25.94 15.3394C24.95 14.7694 23.4 14.7694 22.41 15.3394L17.19 18.3493C15.12 19.7494 15 19.9594 15 22.1893V27.6193C15 29.8494 15.12 30.0694 17.23 31.4893L22.4 34.4794C22.9 34.7694 23.54 34.9094 24.17 34.9094C24.8 34.9094 25.44 34.7694 25.93 34.4794L31.15 31.4694C33.22 30.0694 33.34 29.8594 33.34 27.6294V22.1893C33.34 19.9594 33.22 19.7494 31.11 18.3294ZM24.17 28.1594C22.38 28.1594 20.92 26.6994 20.92 24.9094C20.92 23.1193 22.38 21.6594 24.17 21.6594C25.96 21.6594 27.42 23.1193 27.42 24.9094C27.42 26.6994 25.96 28.1594 24.17 28.1594Z" fill="#6B747F"/>
</g>
<defs>
<clipPath id="clip0_17_23510">
<rect width="36" height="36.75" fill="white" transform="translate(0 0.25)"/>
</clipPath>
</defs>
</svg>
