<svg width="154" height="49" viewBox="0 0 154 49" fill="none" xmlns="http://www.w3.org/2000/svg">
<path d="M33.7454 9.022C34.6234 7.77582 36.6916 4.85995 38.6071 2.16794C39.2961 1.19953 39.9196 0.407331 39.9927 0.407715C40.0657 0.408099 40.2875 0.537954 40.4855 0.696496L40.8456 0.98451L38.5747 4.18557C37.3255 5.94606 36.0412 7.76109 35.7204 8.21892C35.3996 8.67674 35.0919 9.10895 35.0365 9.17939C34.9812 9.24982 34.3273 10.1719 33.5837 11.2284C32.321 13.022 30.9889 14.9042 27.1911 20.2609C26.3459 21.4532 25.2983 22.934 24.863 23.5518C24.4277 24.1695 23.4377 25.5683 22.6632 26.66C21.8886 27.7517 20.7752 29.326 20.189 30.1585C19.6028 30.9909 18.9791 31.8633 18.803 32.0969C18.4355 32.5848 17.8828 33.3625 16.6151 35.1762C15.4053 36.9071 15.4838 36.8471 14.9773 36.4244L14.5547 36.0715L14.8032 35.7519C14.9399 35.5761 15.2763 35.1105 15.5507 34.7172C15.8252 34.3238 17.0582 32.5792 18.2908 30.8401C19.5234 29.101 20.6046 27.5738 20.6935 27.4464C20.8315 27.2486 20.7952 27.1324 20.4441 26.6492C19.3692 25.1693 14.0256 17.7202 13.1029 16.4149C11.2273 13.762 8.66196 10.2066 8.5289 10.0758C8.44067 9.989 8.41403 14.3219 8.4463 23.5224L8.49394 37.0971H7.98169H7.46944L7.3917 29.4133C7.34893 25.1873 7.30565 18.6417 7.29566 14.8677L7.27734 8.00582L7.75758 7.85791C8.19556 7.72318 8.25728 7.73535 8.45962 7.9966C8.73291 8.34967 14.3631 16.1878 15.7943 18.2078C16.5661 19.2973 21.4318 26.0906 21.5411 26.2315C21.5495 26.2424 21.9598 25.6765 22.4528 24.974C22.9459 24.2715 23.4205 23.5999 23.5074 23.4816C23.6715 23.2582 25.1811 21.1273 28.1516 16.9254C29.1025 15.5804 30.572 13.5046 31.4172 12.3126C32.2624 11.1206 33.3101 9.63978 33.7454 9.022Z" fill="#06B3A8"/>
<path d="M29.591 19.2323C29.8647 18.8449 30.8164 17.4763 31.7059 16.1908C32.5953 14.9055 33.3898 13.8537 33.4716 13.8537C33.5533 13.8537 33.8016 13.917 34.0234 13.9943L34.4267 14.1349V25.52V36.905H33.8504H33.2741L33.2684 26.4359C33.2634 17.1194 33.2416 15.9949 33.0714 16.2229C32.9662 16.3637 32.1836 17.4875 31.3321 18.7201C30.4807 19.9527 28.7973 22.3701 27.5912 24.0921C25.6252 26.8991 24.5908 28.3805 22.9651 30.7178C22.6833 31.1227 21.4155 32.9384 20.1477 34.7524C16.5672 39.8753 14.7978 42.4093 14.4489 42.9139C13.4648 44.3365 10.9539 47.8997 10.7476 48.1662C10.5121 48.4704 10.4979 48.4726 10.1656 48.2547C9.97819 48.132 9.79545 47.9548 9.75946 47.8611C9.72347 47.7673 10.0774 47.1512 10.5462 46.492C11.0149 45.8326 13.348 42.4982 15.7312 39.0821C18.1143 35.666 20.4287 32.3529 20.8743 31.7196C21.3198 31.0864 22.0051 30.1067 22.3971 29.5426C23.8587 27.4393 29.1113 19.9112 29.591 19.2323Z" fill="#06B3A8"/>
<path d="M51.7164 33.1641C52.1734 33.1641 52.4664 32.8711 52.4664 32.3789V19.125H52.5367L58.1383 32.2734C58.3375 32.7422 58.6422 32.9531 59.1109 32.9531C59.5797 32.9531 59.8727 32.7422 60.0836 32.25L65.6852 19.125H65.7555V32.3789C65.7555 32.8711 66.0367 33.1641 66.5055 33.1641C66.9742 33.1641 67.2555 32.8711 67.2555 32.3789V16.9102C67.2555 16.3125 66.857 15.9258 66.2594 15.9258C65.7203 15.9258 65.3805 16.1836 65.1344 16.7578L59.1461 30.8906H59.0758L53.0641 16.7578C52.818 16.1836 52.5016 15.9258 51.9625 15.9258C51.3648 15.9258 50.9664 16.3125 50.9664 16.9102V32.3789C50.9664 32.8711 51.2477 33.1641 51.7164 33.1641ZM79.9188 33.1992C83.2469 33.1992 85.4734 30.7617 85.4734 26.9062C85.4734 23.0508 83.2469 20.6133 79.9188 20.6133C76.5906 20.6133 74.3641 23.0508 74.3641 26.9062C74.3641 30.7617 76.5906 33.1992 79.9188 33.1992ZM79.9188 31.8281C77.5164 31.8281 75.9461 29.9883 75.9461 26.9062C75.9461 23.8242 77.5164 21.9844 79.9188 21.9844C82.3328 21.9844 83.9031 23.8359 83.9031 26.9062C83.9031 29.9766 82.3328 31.8281 79.9188 31.8281ZM93.1094 33.1992C93.5664 33.1992 93.8828 32.8594 93.8828 32.3672V25.7812C93.8828 23.5195 95.2891 21.9961 97.4219 21.9961C99.4375 21.9961 100.621 23.2148 100.621 25.3477V32.3672C100.621 32.8594 100.938 33.1992 101.395 33.1992C101.852 33.1992 102.168 32.8594 102.168 32.3672V25.1016C102.168 22.3359 100.516 20.6133 97.8672 20.6133C95.8867 20.6133 94.4688 21.5742 93.8359 23.0625H93.8008V21.3984C93.8008 20.9297 93.4961 20.6133 93.0625 20.6133C92.6406 20.6133 92.3359 20.9297 92.3359 21.3984V32.3672C92.3359 32.8594 92.6523 33.1992 93.1094 33.1992ZM114.187 33.1992C116.249 33.1992 117.714 32.0273 118.323 30.3633H118.359V32.4375C118.359 32.8945 118.722 33.1992 119.155 33.1992C119.601 33.1992 119.917 32.8828 119.917 32.4375V16.7227C119.917 16.2305 119.589 15.8906 119.132 15.8906C118.675 15.8906 118.359 16.2305 118.359 16.7227V23.3203H118.323C117.679 21.7383 116.12 20.6133 114.152 20.6133C111.093 20.6133 108.972 23.1094 108.972 26.9062C108.972 30.6914 111.105 33.1992 114.187 33.1992ZM114.456 31.8281C112.113 31.8281 110.566 29.8828 110.566 26.9062C110.566 23.9297 112.113 21.9844 114.456 21.9844C116.777 21.9844 118.37 23.9648 118.37 26.9062C118.37 29.8594 116.777 31.8281 114.456 31.8281ZM131.737 33.1992C133.67 33.1992 135.135 32.2383 135.78 30.7383H135.815V32.4141C135.815 32.8594 136.108 33.1992 136.553 33.1992C136.998 33.1992 137.28 32.8594 137.28 32.4141V21.4453C137.28 20.9531 136.963 20.6133 136.506 20.6133C136.049 20.6133 135.733 20.9531 135.733 21.4453V28.043C135.733 30.3281 134.303 31.8164 132.182 31.8164C130.143 31.8164 128.995 30.6211 128.995 28.4648V21.4453C128.995 20.9531 128.666 20.6133 128.221 20.6133C127.764 20.6133 127.436 20.9531 127.436 21.4453V28.7344C127.436 31.4766 129.088 33.1992 131.737 33.1992Z" fill="#001E18"/>
</svg>
