<svg width="639" height="202" viewBox="0 0 639 202" fill="none" xmlns="http://www.w3.org/2000/svg">
<path d="M140.606 37.5917C144.264 32.3993 152.882 20.2498 160.863 9.03312C163.734 4.99807 166.332 1.69725 166.636 1.69885C166.94 1.70045 167.865 2.24151 168.69 2.90211L170.19 4.10217L160.728 17.4399C155.523 24.7753 150.172 32.3379 148.835 34.2455C147.498 36.1531 146.216 37.954 145.986 38.2475C145.755 38.541 143.031 42.3829 139.932 46.785C134.671 54.2586 129.12 62.1008 113.296 84.4206C109.775 89.3884 105.409 95.5583 103.596 98.1324C101.782 100.706 97.6573 106.534 94.4301 111.083C91.2024 115.632 86.5633 122.192 84.121 125.661C81.6782 129.129 79.0796 132.764 78.3459 133.737C76.8145 135.77 74.5115 139.011 69.2294 146.567C64.1885 153.78 64.5156 153.53 62.4053 151.768L60.6444 150.298L61.6801 148.966C62.2495 148.234 63.6512 146.294 64.7947 144.655C65.9382 143.016 71.0757 135.747 76.2115 128.5C81.3474 121.254 85.8525 114.891 86.2229 114.36C86.7981 113.536 86.6465 113.052 85.1839 111.038C80.7049 104.872 58.4401 73.8341 54.5955 68.3957C46.7805 57.3417 36.0915 42.5275 35.5371 41.9827C35.1694 41.6209 35.0585 59.6746 35.1929 98.0102L35.3914 154.571H33.257H31.1227L30.7988 122.556C30.6205 104.947 30.4402 77.6738 30.3986 61.9488L30.3223 33.3576L32.3233 32.7413C34.1481 32.18 34.4053 32.2307 35.2484 33.3192C36.3871 34.7903 59.8461 67.4491 65.8096 75.866C69.0256 80.4053 89.299 108.711 89.7547 109.298C89.7894 109.343 91.4991 106.985 93.5534 104.059C95.6077 101.131 97.5852 98.333 97.9476 97.84C98.6311 96.9094 104.921 88.0304 117.298 70.5226C121.26 64.9182 127.383 56.2692 130.905 51.3025C134.427 46.3357 138.792 40.1658 140.606 37.5917Z" fill="#06B3A8"/>
<path d="M123.296 80.1348C124.436 78.5206 128.401 72.8181 132.108 67.4619C135.814 62.1062 139.124 57.7237 139.465 57.7237C139.805 57.7237 140.84 57.9873 141.764 58.3096L143.445 58.8955V106.333V153.771H141.043H138.642L138.618 110.15C138.597 71.331 138.507 66.6455 137.798 67.5953C137.359 68.1822 134.098 72.8645 130.55 78.0004C127.003 83.1362 119.989 93.2089 114.963 100.384C106.772 112.08 102.462 118.252 95.6878 127.991C94.5139 129.678 89.2313 137.243 83.9487 144.802C69.0299 166.147 61.6577 176.705 60.2036 178.808C56.1035 184.736 45.6413 199.582 44.7816 200.693C43.8004 201.96 43.7411 201.969 42.3565 201.061C41.5758 200.55 40.8144 199.812 40.6644 199.421C40.5145 199.031 41.9893 196.463 43.9423 193.716C45.8953 190.969 55.6169 177.076 65.5465 162.842C75.4762 148.608 85.1194 134.804 86.9763 132.165C88.8327 129.527 91.6879 125.445 93.3213 123.094C99.4112 114.33 121.297 82.9634 123.296 80.1348Z" fill="#06B3A8"/>
<path d="M213.985 136.184C215.889 136.184 217.11 134.963 217.11 132.912V77.6875H217.403L240.743 132.473C241.573 134.426 242.842 135.305 244.796 135.305C246.749 135.305 247.969 134.426 248.848 132.375L272.188 77.6875H272.481V132.912C272.481 134.963 273.653 136.184 275.606 136.184C277.559 136.184 278.731 134.963 278.731 132.912V68.459C278.731 65.9688 277.071 64.3574 274.581 64.3574C272.335 64.3574 270.919 65.4316 269.893 67.8242L244.942 126.711H244.649L219.6 67.8242C218.575 65.4316 217.257 64.3574 215.01 64.3574C212.52 64.3574 210.86 65.9688 210.86 68.459V132.912C210.86 134.963 212.032 136.184 213.985 136.184ZM331.495 136.33C345.362 136.33 354.639 126.174 354.639 110.109C354.639 94.0449 345.362 83.8887 331.495 83.8887C317.628 83.8887 308.35 94.0449 308.35 110.109C308.35 126.174 317.628 136.33 331.495 136.33ZM331.495 130.617C321.485 130.617 314.942 122.951 314.942 110.109C314.942 97.2676 321.485 89.6016 331.495 89.6016C341.553 89.6016 348.096 97.3164 348.096 110.109C348.096 122.902 341.553 130.617 331.495 130.617ZM386.456 136.33C388.36 136.33 389.678 134.914 389.678 132.863V105.422C389.678 95.998 395.538 89.6504 404.424 89.6504C412.823 89.6504 417.755 94.7285 417.755 103.615V132.863C417.755 134.914 419.073 136.33 420.977 136.33C422.882 136.33 424.2 134.914 424.2 132.863V102.59C424.2 91.0664 417.315 83.8887 406.28 83.8887C398.028 83.8887 392.12 87.8926 389.483 94.0938H389.337V87.1602C389.337 85.207 388.067 83.8887 386.26 83.8887C384.503 83.8887 383.233 85.207 383.233 87.1602V132.863C383.233 134.914 384.551 136.33 386.456 136.33ZM474.278 136.33C482.872 136.33 488.975 131.447 491.514 124.514H491.661V133.156C491.661 135.061 493.174 136.33 494.981 136.33C496.837 136.33 498.155 135.012 498.155 133.156V67.6777C498.155 65.627 496.788 64.2109 494.883 64.2109C492.979 64.2109 491.661 65.627 491.661 67.6777V95.168H491.514C488.829 88.5762 482.335 83.8887 474.132 83.8887C461.387 83.8887 452.549 94.2891 452.549 110.109C452.549 125.881 461.436 136.33 474.278 136.33ZM475.401 130.617C465.635 130.617 459.19 122.512 459.19 110.109C459.19 97.707 465.635 89.6016 475.401 89.6016C485.069 89.6016 491.71 97.8535 491.71 110.109C491.71 122.414 485.069 130.617 475.401 130.617ZM547.403 136.33C555.46 136.33 561.563 132.326 564.249 126.076H564.395V133.059C564.395 134.914 565.616 136.33 567.471 136.33C569.327 136.33 570.499 134.914 570.499 133.059V87.3555C570.499 85.3047 569.18 83.8887 567.276 83.8887C565.372 83.8887 564.053 85.3047 564.053 87.3555V114.846C564.053 124.367 558.096 130.568 549.258 130.568C540.762 130.568 535.977 125.588 535.977 116.604V87.3555C535.977 85.3047 534.61 83.8887 532.755 83.8887C530.85 83.8887 529.483 85.3047 529.483 87.3555V117.727C529.483 129.152 536.368 136.33 547.403 136.33Z" fill="#001E18"/>
</svg>
