<svg width="128" height="41" viewBox="0 0 128 41" fill="none" xmlns="http://www.w3.org/2000/svg">
<path d="M28.1212 7.76841C28.8528 6.72993 30.5764 4.30004 32.1726 2.0567C32.7467 1.24969 33.2663 0.589524 33.3273 0.589844C33.3881 0.590164 33.5729 0.698376 33.7379 0.830494L34.038 1.07051L32.1456 3.73806C31.1046 5.20513 30.0343 6.71766 29.767 7.09918C29.4997 7.4807 29.2432 7.84088 29.1971 7.89957C29.151 7.95827 28.6061 8.72665 27.9864 9.60708C26.9341 11.1018 25.8241 12.6702 22.6593 17.1342C21.9549 18.1278 21.0819 19.3617 20.7191 19.8766C20.3564 20.3914 19.5315 21.557 18.886 22.4667C18.2405 23.3765 17.3127 24.6884 16.8242 25.3822C16.3356 26.0759 15.8159 26.8028 15.6692 26.9975C15.3629 27.4041 14.9023 28.0522 13.8459 29.5636C12.8377 31.006 12.9031 30.956 12.4811 30.6038L12.1289 30.3096L12.336 30.0434C12.4499 29.8968 12.7302 29.5088 12.9589 29.1811C13.1876 28.8532 14.2151 27.3994 15.2423 25.9502C16.2695 24.5009 17.1705 23.2283 17.2446 23.1221C17.3596 22.9572 17.3293 22.8604 17.0368 22.4578C16.141 21.2245 11.688 15.0169 10.9191 13.9292C9.3561 11.7184 7.2183 8.75557 7.10742 8.64661C7.03389 8.57425 7.01169 12.185 7.03859 19.8521L7.07829 31.1643H6.65141H6.22453L6.15975 24.7612C6.12411 21.2395 6.08804 15.7848 6.07971 12.6398L6.06445 6.9216L6.46465 6.79834C6.82963 6.68607 6.88107 6.69621 7.04968 6.91391C7.27742 7.20814 11.9692 13.7399 13.1619 15.4233C13.8051 16.3311 17.8598 21.9923 17.9509 22.1097C17.9579 22.1187 18.2998 21.6471 18.7107 21.0618C19.1215 20.4763 19.517 19.9167 19.5895 19.8181C19.7262 19.632 20.9842 17.8561 23.4597 14.3546C24.2521 13.2337 25.4767 11.5039 26.181 10.5106C26.8854 9.51722 27.7584 8.28323 28.1212 7.76841Z" fill="#06B3A8"/>
<path d="M24.6592 16.277C24.8873 15.9542 25.6803 14.8137 26.4216 13.7424C27.1627 12.6713 27.8248 11.7948 27.893 11.7948C27.9611 11.7948 28.168 11.8475 28.3529 11.912L28.6889 12.0292V21.5167V31.0043H28.2087H27.7285L27.7236 22.28C27.7195 14.5163 27.7013 13.5792 27.5595 13.7691C27.4718 13.8865 26.8196 14.823 26.1101 15.8501C25.4006 16.8773 23.9978 18.8919 22.9927 20.3268C21.3543 22.666 20.4924 23.9005 19.1376 25.8482C18.9028 26.1857 17.8463 27.6988 16.7897 29.2104C13.806 33.4795 12.3315 35.5912 12.0407 36.0116C11.2207 37.1972 9.12825 40.1665 8.95633 40.3886C8.76007 40.6421 8.74823 40.6439 8.47129 40.4624C8.31516 40.3601 8.16287 40.2124 8.13288 40.1343C8.1029 40.0562 8.39787 39.5428 8.78846 38.9934C9.17905 38.4439 11.1234 35.6652 13.1093 32.8185C15.0952 29.9718 17.0239 27.2108 17.3953 26.6831C17.7665 26.1554 18.3376 25.339 18.6643 24.8689C19.8822 23.1161 24.2594 16.8427 24.6592 16.277Z" fill="#06B3A8"/>
<path d="M43.097 27.8867C43.4778 27.8867 43.722 27.6426 43.722 27.2324V16.1875H43.7806L48.4485 27.1445C48.6146 27.5352 48.8685 27.7109 49.2591 27.7109C49.6497 27.7109 49.8939 27.5352 50.0696 27.125L54.7376 16.1875H54.7962V27.2324C54.7962 27.6426 55.0306 27.8867 55.4212 27.8867C55.8118 27.8867 56.0462 27.6426 56.0462 27.2324V14.3418C56.0462 13.8438 55.7142 13.5215 55.2161 13.5215C54.7669 13.5215 54.4837 13.7363 54.2786 14.2148L49.2884 25.9922H49.2298L44.22 14.2148C44.015 13.7363 43.7513 13.5215 43.3021 13.5215C42.804 13.5215 42.472 13.8438 42.472 14.3418V27.2324C42.472 27.6426 42.7064 27.8867 43.097 27.8867ZM66.5989 27.916C69.3724 27.916 71.2278 25.8848 71.2278 22.6719C71.2278 19.459 69.3724 17.4277 66.5989 17.4277C63.8255 17.4277 61.97 19.459 61.97 22.6719C61.97 25.8848 63.8255 27.916 66.5989 27.916ZM66.5989 26.7734C64.597 26.7734 63.2884 25.2402 63.2884 22.6719C63.2884 20.1035 64.597 18.5703 66.5989 18.5703C68.6107 18.5703 69.9193 20.1133 69.9193 22.6719C69.9193 25.2305 68.6107 26.7734 66.5989 26.7734ZM77.5911 27.916C77.972 27.916 78.2357 27.6328 78.2357 27.2227V21.7344C78.2357 19.8496 79.4075 18.5801 81.1849 18.5801C82.8646 18.5801 83.8509 19.5957 83.8509 21.373V27.2227C83.8509 27.6328 84.1146 27.916 84.4954 27.916C84.8763 27.916 85.14 27.6328 85.14 27.2227V21.168C85.14 18.8633 83.763 17.4277 81.556 17.4277C79.9056 17.4277 78.7239 18.2285 78.1966 19.4688H78.1673V18.082C78.1673 17.6914 77.9134 17.4277 77.5521 17.4277C77.2005 17.4277 76.9466 17.6914 76.9466 18.082V27.2227C76.9466 27.6328 77.2103 27.916 77.5911 27.916ZM95.1556 27.916C96.8743 27.916 98.095 26.9395 98.6028 25.5527H98.6321V27.2812C98.6321 27.6621 98.9349 27.916 99.2962 27.916C99.6673 27.916 99.931 27.6523 99.931 27.2812V14.1855C99.931 13.7754 99.6575 13.4922 99.2767 13.4922C98.8958 13.4922 98.6321 13.7754 98.6321 14.1855V19.6836H98.6028C98.0657 18.3652 96.7669 17.4277 95.1263 17.4277C92.5775 17.4277 90.8099 19.5078 90.8099 22.6719C90.8099 25.8262 92.5872 27.916 95.1556 27.916ZM95.3802 26.7734C93.4271 26.7734 92.138 25.1523 92.138 22.6719C92.138 20.1914 93.4271 18.5703 95.3802 18.5703C97.3138 18.5703 98.6419 20.2207 98.6419 22.6719C98.6419 25.1328 97.3138 26.7734 95.3802 26.7734ZM109.781 27.916C111.392 27.916 112.613 27.1152 113.15 25.8652H113.179V27.2617C113.179 27.6328 113.423 27.916 113.794 27.916C114.165 27.916 114.4 27.6328 114.4 27.2617V18.1211C114.4 17.7109 114.136 17.4277 113.755 17.4277C113.374 17.4277 113.111 17.7109 113.111 18.1211V23.6191C113.111 25.5234 111.919 26.7637 110.152 26.7637C108.452 26.7637 107.495 25.7676 107.495 23.9707V18.1211C107.495 17.7109 107.222 17.4277 106.851 17.4277C106.47 17.4277 106.197 17.7109 106.197 18.1211V24.1953C106.197 26.4805 107.574 27.916 109.781 27.916Z" fill="white"/>
</svg>
